<svg xmlns="http://www.w3.org/2000/svg" viewBox="0 0 132.97 43.25"><defs><style>.cls-1{fill:#262262;}.cls-2{fill:#f15a29;}</style></defs><g id="Layer_2" data-name="Layer 2"><g id="Layer_1-2" data-name="Layer 1"><path class="cls-1" d="M0,1.59H6.44L14,21.83c.5,1.33.91,2.5,1.25,3.51s.63,1.94.89,2.82q1-3.18,2-6.22c.09-.26.16-.43.19-.52L26.41,0,34.9,21.83C35.3,22.89,35.68,24,36,25s.69,2.13,1,3.2c.18-.82.43-1.72.74-2.71S38.48,23.35,39,22L46.51,1.59H53L37.47,43.25,28.32,20.38c-.4-1-.76-2-1.09-2.95s-.62-1.83-.88-2.67q-.47,1.62-.93,3t-1,2.7l-9,22.76Z"/><path class="cls-2" d="M75.22,29.58H54.46a8.77,8.77,0,0,0,2.16,5.69,6.84,6.84,0,0,0,5.18,2,8.76,8.76,0,0,0,4.79-1.21,9.91,9.91,0,0,0,3.35-3.89L75,35a15.2,15.2,0,0,1-5.42,5.83,14.61,14.61,0,0,1-7.59,1.92Q55.69,42.76,52,39T48.3,28.79a13.8,13.8,0,0,1,3.82-10,13.1,13.1,0,0,1,9.82-3.93q6.27,0,9.78,3.59t3.5,10.05Zm-6.16-4a6.31,6.31,0,0,0-2.14-4.26,7.46,7.46,0,0,0-4.87-1.46,7.29,7.29,0,0,0-4.71,1.42,7.69,7.69,0,0,0-2.5,4.3Z"/><path class="cls-1" d="M79.66,41.69V1.59H102V7.12H86.18v10H102v5.72H86.18V41.69Z"/><path class="cls-1" d="M105.85,4.49A3.53,3.53,0,0,1,107,1.89a3.78,3.78,0,0,1,5.29,0,3.58,3.58,0,0,1,1,2.64,3.66,3.66,0,0,1-1.07,2.67,3.56,3.56,0,0,1-2.63,1.09A3.61,3.61,0,0,1,107,7.14,3.61,3.61,0,0,1,105.85,4.49Zm.79,37.2v-26h6v26Z"/><path class="cls-1" d="M122.48,41.69V20.93h-4.55V15.72h4.55V5.89h5.94v9.83H133v5.21h-4.55V41.69Z"/></g></g></svg>